<svg version="1.1" id="Layer_1" xmlns="http://www.w3.org/2000/svg" xmlns:xlink="http://www.w3.org/1999/xlink" x="0px" y="0px"
	 width="100%" viewBox="0 0 816 933" enable-background="new 0 0 816 933" xml:space="preserve">
<path fill="#FFFFFF" opacity="1.000000" stroke="none" 
	d="
M364.000000,934.000000 
	C293.976685,934.000000 223.953354,934.000000 153.556458,933.649170 
	C169.806091,928.637390 172.741653,909.471985 161.421600,898.897400 
	C155.589645,893.449585 149.469559,888.310913 143.505524,883.003479 
	C141.107681,880.869629 138.966721,877.862427 141.555954,875.347656 
	C143.219650,873.731812 147.156815,873.197144 149.552460,873.916931 
	C152.473129,874.794373 154.845642,877.496277 157.555893,879.482788 
	C160.553284,876.858337 163.547745,874.236511 166.525299,871.629456 
	C162.790710,865.791870 157.604599,862.075195 151.134384,860.531311 
	C142.806900,858.544373 134.112091,861.947876 129.827209,868.871826 
	C125.656044,875.612061 126.371750,882.992432 132.284775,890.032227 
	C134.838242,893.072327 137.899063,895.700867 140.835175,898.401367 
	C144.750351,902.002319 149.074524,905.217590 152.598099,909.157410 
	C154.090393,910.825989 155.208664,914.583435 154.322357,916.196655 
	C153.118332,918.388123 149.816681,920.677063 147.436691,920.653931 
	C144.511780,920.625610 141.449509,918.509399 138.758759,916.803406 
	C137.198654,915.814270 136.251801,913.857910 134.884613,912.157349 
	C131.190430,914.408264 127.709602,916.529175 124.293777,918.610535 
	C127.161469,926.635620 133.352005,930.555359 140.000000,934.000000 
	C94.994057,934.000000 49.988110,934.008545 4.982226,933.958069 
	C3.654460,933.956543 2.327392,933.333313 1.464403,932.451599 
	C5.073463,931.937073 8.234173,931.786438 11.358129,932.058289 
	C14.308513,932.314941 15.789133,931.279236 16.809406,928.442017 
	C18.239498,924.465332 20.256971,920.699768 22.486893,916.909363 
	C31.669163,916.966675 40.387711,916.958496 49.337498,917.226562 
	C51.455120,922.271423 53.341507,927.040161 55.209068,931.761230 
	C59.832283,931.761230 64.243362,931.761230 69.026283,931.761230 
	C68.368004,929.897339 67.859871,928.342407 67.274025,926.817322 
	C60.194721,908.389404 53.093452,889.969971 46.020512,871.539612 
	C42.278904,861.789978 42.299053,861.893372 31.810556,861.920898 
	C29.020447,861.928223 27.818449,862.779358 26.855328,865.432373 
	C23.289469,875.254700 19.453783,884.981201 15.602138,894.697144 
	C10.795415,906.822144 5.872660,918.901123 1.000003,931.000000 
	C1.000000,621.100403 1.000000,311.200836 1.000000,1.000000 
	C133.356506,1.000000 265.713257,1.000000 398.325500,1.375552 
	C386.035492,3.172364 373.356415,3.866544 360.968018,6.142806 
	C311.638763,15.206631 268.598145,37.100067 231.614975,70.955223 
	C208.656372,91.972015 190.382050,116.561005 175.452820,144.033432 
	C173.726181,144.679291 172.379623,145.349731 170.972900,145.851562 
	C141.424683,156.392761 113.526558,169.922089 88.997520,189.888229 
	C74.086357,202.025650 61.856575,216.328079 53.009083,233.305740 
	C38.412891,261.314697 37.036167,291.194611 42.499130,321.560577 
	C48.723927,356.161224 63.475971,387.569336 80.625336,417.902435 
	C97.322052,447.434906 116.975388,475.001221 137.600830,501.882935 
	C140.379456,505.504425 143.664444,508.737366 146.818268,512.598999 
	C147.923126,526.814026 148.155533,540.687866 150.060837,554.328003 
	C157.857513,610.144775 181.280457,658.875549 220.944992,698.701599 
	C286.816650,764.841614 366.671051,790.641113 458.597992,773.724976 
	C534.917847,759.680847 593.136108,717.557617 633.792908,651.665588 
	C658.440125,611.720093 670.437500,567.811523 671.516663,520.550415 
	C671.807556,508.738007 671.940613,497.250458 671.895569,485.763611 
	C671.884338,482.899231 672.478394,480.946777 675.084900,479.126221 
	C685.140686,472.102539 694.825745,464.548462 704.878174,457.519775 
	C729.581970,440.246735 752.149658,420.954681 766.692505,393.844727 
	C777.479248,373.736725 781.359863,352.365967 777.710632,329.841736 
	C774.459290,309.773376 766.603027,291.337219 756.272461,273.962036 
	C740.917297,248.135651 721.540710,225.407089 700.995544,203.664764 
	C690.474854,192.531036 679.479492,181.838150 668.514832,171.134399 
	C661.152649,163.947510 653.468018,157.090973 645.710815,149.817734 
	C644.764404,148.241867 644.017212,146.944366 643.307922,145.626541 
	C598.212280,61.850418 528.748230,13.798313 433.985229,2.824570 
	C428.986755,2.245734 423.994934,1.609508 419.000000,1.000001 
	C551.623596,1.000000 684.247253,1.000000 817.000000,1.000000 
	C817.000000,310.356628 817.000000,619.713318 816.710571,929.322998 
	C808.946655,910.214050 801.455872,890.858398 794.004639,871.487549 
	C790.266602,861.769775 790.299561,861.878723 779.734863,861.915100 
	C776.878662,861.924927 775.800415,862.935669 774.836060,865.511292 
	C770.061523,878.262756 765.002869,890.907593 760.096497,903.610168 
	C756.518005,912.874817 753.020325,922.170654 749.276550,932.004272 
	C752.836121,932.004272 755.818420,931.769409 758.746826,932.066284 
	C762.080933,932.404297 763.850220,931.341736 764.965271,928.037537 
	C766.268127,924.177063 768.305298,920.564453 770.487610,916.909058 
	C779.922607,917.091248 788.893860,917.208557 797.901978,917.691040 
	C798.024048,918.377136 798.083069,918.707825 798.198242,919.017761 
	C803.027893,932.014771 803.028503,932.014526 817.000000,932.000000 
	C816.667908,932.666687 816.454590,933.783813 815.979675,933.909058 
	C814.890198,934.196350 813.673157,934.000000 812.507935,934.000000 
	C697.315308,934.000000 582.122681,934.000000 466.556580,933.649170 
	C477.060608,929.435486 481.616028,922.920166 481.000671,911.965271 
	C480.636871,905.488892 476.798340,900.886047 472.317139,896.796204 
	C467.158203,892.087646 461.747223,887.656250 456.539856,882.999329 
	C454.220825,880.925293 451.809845,877.868408 454.535553,875.385864 
	C456.340179,873.742310 460.392792,873.388550 462.982056,874.106079 
	C465.741364,874.870850 467.962463,877.577454 470.566071,879.547913 
	C473.560791,876.840759 476.577209,874.113953 480.485657,870.580811 
	C475.822052,867.302795 472.111298,863.864136 467.749573,861.802917 
	C458.861755,857.602783 448.482086,860.602600 443.311249,868.120667 
	C438.243652,875.488647 439.381012,883.969055 446.662140,891.613953 
	C449.294373,894.377625 452.234253,896.850708 455.062958,899.424377 
	C458.627869,902.667969 462.559998,905.591614 465.656433,909.229797 
	C467.112061,910.940002 468.183960,914.670715 467.280884,916.279724 
	C466.061432,918.452393 462.749878,920.700195 460.376404,920.657776 
	C457.445038,920.605225 454.394318,918.486389 451.709106,916.769348 
	C450.159210,915.778381 449.228424,913.819092 447.957947,912.218750 
	C445.980316,913.356201 444.240936,914.303040 442.556915,915.339844 
	C440.763916,916.443726 439.023315,917.632629 437.310791,918.751160 
	C440.616913,926.034424 442.057098,927.417175 453.000000,934.000000 
	C429.309998,934.000000 405.620026,934.000000 381.622864,933.657837 
	C390.067627,931.532410 397.120239,926.946106 403.513702,920.059875 
	C400.185669,917.133118 397.094116,914.414246 393.953644,911.652466 
	C378.516754,923.350647 364.815674,924.139465 355.088531,913.639709 
	C346.704163,904.589233 346.821869,889.417908 355.346466,880.389832 
	C365.334595,869.811951 378.983704,870.626526 394.632111,882.829773 
	C397.408539,879.844543 400.198334,876.844971 403.126556,873.696594 
	C398.327209,867.764648 391.970398,864.044250 384.707367,861.719604 
	C365.160034,855.463013 343.325867,866.121643 337.241791,884.865356 
	C330.598846,905.330750 340.774994,925.613770 361.088989,932.464417 
	C362.115234,932.810547 363.032166,933.480713 364.000000,934.000000 
M647.304810,873.085449 
	C647.304810,869.500000 647.304810,865.914612 647.304810,862.305664 
	C634.233093,862.305664 621.838928,862.305664 609.402588,862.305664 
	C609.402588,885.643799 609.402588,908.673157 609.402588,931.697876 
	C622.163940,931.697876 634.577087,931.697876 647.111145,931.697876 
	C647.111145,927.597778 647.111145,923.799316 646.679688,919.230713 
	C638.494995,919.041199 630.310242,918.851685 622.260742,917.775818 
	C622.260742,912.005188 622.260742,906.234619 622.260742,899.928650 
	C630.905029,899.928650 638.961060,899.928650 647.110901,899.928650 
	C647.110901,895.590576 647.110901,891.795898 646.679810,887.230896 
	C638.498901,887.047241 630.317932,886.863525 622.261353,885.814575 
	C622.226746,882.304443 622.192139,878.794373 623.052307,875.109070 
	C628.122009,875.072693 633.195557,875.144043 638.259827,874.958862 
	C641.217712,874.850708 644.160645,874.332764 647.304810,873.085449 
M527.504150,863.921326 
	C523.589172,886.452515 519.674194,908.983765 515.728149,931.694031 
	C520.536194,931.694031 524.620911,931.694031 528.747498,931.694031 
	C531.259583,917.517639 533.719543,903.635193 536.179565,889.752808 
	C536.469727,889.755432 536.759888,889.757996 537.050110,889.760620 
	C541.743652,903.759888 546.437256,917.759216 551.143372,931.795837 
	C552.354248,931.875671 553.340698,931.982971 554.328613,931.999329 
	C563.061401,932.143982 563.048218,932.134705 565.857605,923.815430 
	C569.663391,912.545654 573.492065,901.283630 577.310852,890.018250 
	C577.649658,890.026001 577.988403,890.033752 578.327209,890.041565 
	C580.716553,903.877014 583.105957,917.712524 585.529846,931.747925 
	C589.885315,931.747925 593.968384,931.747925 598.473511,931.747925 
	C594.528748,908.446655 590.626465,885.396484 586.744263,862.464355 
	C574.055908,860.850464 574.068604,860.854736 570.303955,872.027344 
	C566.105957,884.485901 561.881714,896.935608 557.225952,910.698486 
	C551.518494,893.664124 546.255127,877.955444 540.749756,861.524109 
	C536.359131,862.054871 532.068726,862.573486 527.504150,863.921326 
M703.601013,869.870422 
	C690.261169,858.686829 674.424683,862.999390 659.454285,861.907349 
	C659.454285,885.766174 659.454285,908.793335 659.454285,931.992737 
	C667.503296,931.992737 675.155701,932.078125 682.805603,931.973389 
	C695.187500,931.803772 705.089905,927.248657 710.909119,915.687317 
	C718.338684,900.926392 715.637451,882.780151 703.601013,869.870422 
M221.991135,867.617371 
	C221.991135,889.014160 221.991135,910.410889 221.991135,931.605286 
	C226.974350,931.605286 231.198135,931.605286 235.852356,931.605286 
	C235.852356,921.291626 235.852356,911.376526 235.852356,901.410461 
	C243.834091,901.410461 251.364685,901.410461 259.256409,901.410461 
	C259.256409,911.741699 259.256409,921.673706 259.256409,931.741333 
	C263.872864,931.741333 268.113800,931.741333 272.540466,931.741333 
	C272.540466,908.438782 272.540466,885.405151 272.540466,862.271851 
	C267.973389,862.271851 263.729767,862.271851 258.933899,862.271851 
	C258.933899,870.925598 258.933899,879.313538 258.933899,887.695557 
	C250.957458,887.695557 243.542252,887.695557 235.546768,887.695557 
	C235.546768,879.020081 235.546768,870.627747 235.546768,862.168762 
	C230.837738,862.168762 226.716675,862.168762 222.266983,862.168762 
	C222.168747,863.763855 222.079956,865.205566 221.991135,867.617371 
M316.478363,919.998596 
	C312.479156,919.997192 308.462494,920.201111 304.491730,919.864380 
	C303.360016,919.768311 301.498047,918.147888 301.444916,917.148132 
	C301.147552,911.552429 301.301788,905.932739 301.301788,899.779663 
	C310.003387,899.779663 318.068298,899.779663 326.065491,899.779663 
	C326.065491,895.616455 326.065491,892.023926 326.065491,887.998596 
	C321.298096,887.998596 316.830261,887.998657 312.362396,887.998596 
	C300.416565,887.998535 300.413055,887.998230 301.450165,876.052185 
	C301.474365,875.773376 301.819183,875.522461 302.298767,874.874329 
	C309.963806,874.874329 317.917572,874.874329 326.023407,874.874329 
	C326.023407,870.448547 326.023407,866.413086 326.023407,862.307617 
	C313.266449,862.307617 300.862854,862.307617 288.443481,862.307617 
	C288.443481,885.665161 288.443481,908.711487 288.443481,931.660645 
	C301.244354,931.660645 313.669952,931.660645 326.108337,931.660645 
	C326.108337,927.711121 326.108337,924.104614 326.108337,919.998596 
	C323.054810,919.998596 320.261230,919.998596 316.478363,919.998596 
M98.736984,887.998901 
	C94.208229,888.783875 92.747444,886.693420 93.234024,882.407349 
	C93.490952,880.144287 93.279488,877.828125 93.279488,874.977783 
	C101.836105,874.977783 109.907013,874.977783 117.968857,874.977783 
	C117.968857,870.364868 117.968857,866.327820 117.968857,862.356995 
	C105.160759,862.356995 92.760902,862.356995 80.320847,862.356995 
	C80.320847,885.643555 80.320847,908.570557 80.320847,931.588623 
	C93.093193,931.588623 105.611076,931.588623 118.044357,931.588623 
	C118.044357,927.582397 118.044357,923.992676 118.044357,919.998657 
	C110.918419,919.998657 104.111084,920.133423 97.317741,919.885010 
	C95.959702,919.835388 93.560776,918.391907 93.504341,917.476318 
	C93.151039,911.745117 93.325867,905.981323 93.325867,899.853149 
	C102.023834,899.853149 109.972282,899.853149 117.995018,899.853149 
	C117.995018,895.739746 117.995018,892.036743 117.995018,887.998779 
	C111.643585,887.998779 105.667435,887.998779 98.736984,887.998901 
M186.719254,902.500000 
	C186.719254,912.236572 186.719254,921.973145 186.719254,931.716797 
	C191.574646,931.716797 195.660263,931.716797 200.292572,931.716797 
	C200.292572,912.732483 200.292572,894.022583 200.292572,874.903931 
	C204.767334,874.903931 208.696014,874.903931 212.699677,874.903931 
	C212.699677,870.422852 212.699677,866.369751 212.699677,862.402588 
	C199.680191,862.402588 186.978439,862.402588 174.350861,862.402588 
	C174.350861,866.740967 174.350861,870.671509 174.350861,875.112183 
	C178.513916,875.112183 182.420456,875.112183 186.718979,875.112183 
	C186.718979,884.252930 186.718979,892.876465 186.719254,902.500000 
M426.300262,862.128540 
	C422.365509,862.128540 418.430786,862.128540 414.359222,862.128540 
	C414.359222,885.571899 414.359222,908.580261 414.359222,931.718506 
	C418.720520,931.718506 422.787109,931.718506 427.052612,931.718506 
	C427.052612,908.534241 427.052612,885.635315 426.300262,862.128540 
M727.056458,888.500000 
	C727.056458,902.897034 727.056458,917.294067 727.056458,931.684448 
	C731.804077,931.684448 735.877075,931.684448 739.942017,931.684448 
	C739.942017,908.359497 739.942017,885.355713 739.942017,862.322632 
	C735.519409,862.322632 731.460632,862.322632 727.056458,862.322632 
	C727.056458,870.930420 727.056458,879.215210 727.056458,888.500000 
z"/>
<path fill="#6C59A6" opacity="1.000000" stroke="none" 
	d="
M671.292969,520.875488 
	C670.437500,567.811523 658.440125,611.720093 633.792908,651.665588 
	C593.136108,717.557617 534.917847,759.680847 458.597992,773.724976 
	C366.671051,790.641113 286.816650,764.841614 220.944992,698.701599 
	C181.280457,658.875549 157.857513,610.144775 150.060837,554.328003 
	C148.155533,540.687866 147.923126,526.814026 146.941818,512.130981 
	C146.989731,509.384064 147.041351,507.553925 147.041656,505.723755 
	C147.055130,423.662201 146.840485,341.599487 147.278625,259.540222 
	C147.357971,244.678635 149.429062,229.722183 151.783279,215.001846 
	C155.773651,190.051117 164.576248,166.565933 175.804886,143.979507 
	C190.382050,116.561005 208.656372,91.972015 231.614975,70.955223 
	C268.598145,37.100067 311.638763,15.206631 360.968018,6.142806 
	C373.356415,3.866544 386.035492,3.172364 398.790497,1.375552 
	C405.354401,1.000000 411.708801,1.000000 418.531616,1.000001 
	C423.994934,1.609508 428.986755,2.245734 433.985229,2.824570 
	C528.748230,13.798313 598.212280,61.850418 643.307922,145.626541 
	C644.017212,146.944366 644.764404,148.241867 645.746826,150.175354 
	C661.269958,183.593613 670.725403,217.942917 670.944824,254.206207 
	C671.401184,329.617645 671.121643,405.033508 671.159790,480.447540 
	C671.166626,493.923553 671.246704,507.399506 671.292969,520.875488 
M388.989014,58.986420 
	C388.989014,58.986420 388.978760,58.913807 388.298065,58.499050 
	C387.506409,59.317284 386.714783,60.135517 385.987549,60.986034 
	C385.987549,60.986034 385.987183,60.913952 385.312225,60.463963 
	C371.958679,66.315758 358.986450,73.358673 345.175018,77.780022 
	C312.963226,88.091728 280.345001,97.132927 247.904129,106.731705 
	C246.192657,107.238106 244.089508,107.704468 243.034958,108.933037 
	C237.420685,115.473610 232.082733,122.251358 226.114792,129.312271 
	C214.018387,145.663712 204.291946,163.284958 196.827835,183.153244 
	C198.585587,182.478638 199.495270,182.204803 200.338791,181.794846 
	C227.132111,168.773499 254.041458,155.983444 280.675415,142.643585 
	C312.848846,126.529236 344.719788,109.806190 372.050934,85.894058 
	C381.981384,77.205894 390.993958,67.655762 396.597473,54.645203 
	C396.636505,53.837009 396.675507,53.028812 396.714539,52.220615 
	C396.377441,52.038261 396.040375,51.855907 395.703278,51.673550 
	C394.439606,53.435226 393.175903,55.196903 391.982056,56.982578 
	C391.982056,56.982578 391.979767,56.908760 391.334534,56.400558 
	C390.530914,57.251404 389.727325,58.102249 388.989014,58.986420 
M330.166016,729.755188 
	C330.912231,729.825928 331.658417,729.896606 333.527985,730.073730 
	C331.972168,729.084900 331.362030,728.697144 330.320892,727.798462 
	C315.811432,717.498169 302.942566,705.428406 293.666992,690.206604 
	C287.394226,679.912537 282.538239,668.755066 277.051910,657.202576 
	C270.802490,638.538269 268.861725,619.338379 268.934540,599.712219 
	C269.165131,537.583008 269.029724,475.452362 268.969757,413.322327 
	C268.967590,411.063568 268.813538,408.526733 267.817444,406.588623 
	C251.755493,375.336365 242.688843,342.290161 241.774170,307.081909 
	C241.691544,303.900787 241.205215,300.730164 240.882492,297.300964 
	C236.838409,299.603577 235.783340,302.585205 235.787155,306.659851 
	C235.882568,408.433167 235.860809,510.206635 235.866119,611.980042 
	C235.866180,613.310059 235.947800,614.640137 235.832245,616.901978 
	C236.545380,628.987793 237.066925,641.088806 238.029449,653.154724 
	C238.869522,663.685913 242.103912,673.088684 251.107025,679.893921 
	C257.053894,684.388977 262.186981,689.948303 268.040192,694.581665 
	C286.760498,709.400085 307.079163,721.455444 330.166016,729.755188 
M590.647461,653.031189 
	C621.787720,611.559326 637.300171,565.041931 635.954224,512.108765 
	C635.966980,467.648926 636.000793,423.189026 635.924927,378.729340 
	C635.921387,376.680359 635.405029,374.335052 634.328918,372.632446 
	C626.071167,359.566925 617.857849,346.460480 609.126404,333.712158 
	C604.230957,326.564545 598.376160,320.074005 592.953613,313.287415 
	C592.610168,313.469788 592.266785,313.652161 591.923340,313.834564 
	C591.923340,315.287506 591.923279,316.740479 591.923279,318.193420 
	C591.924072,395.623840 591.923828,473.054260 591.934082,550.484680 
	C591.934326,551.979431 592.057922,553.474243 591.959717,555.902771 
	C591.316040,588.272461 590.672424,620.642151 589.685303,653.219116 
	C589.648132,653.475708 589.610962,653.732239 589.573792,653.988831 
	C589.669067,653.938049 589.834595,653.900757 589.847412,653.834167 
	C589.903442,653.541870 589.915344,653.241089 590.647461,653.031189 
M443.882446,96.236420 
	C443.129669,95.862617 442.376923,95.488808 441.624146,95.115005 
	C441.508698,95.312935 441.393250,95.510864 441.277771,95.708794 
	C442.021240,96.319069 442.764679,96.929344 443.700623,98.184196 
	C448.786072,103.885834 453.377319,110.142441 459.045166,115.190147 
	C480.160370,133.994949 501.133972,153.013641 523.087708,170.808350 
	C551.905212,194.166458 581.614685,216.423309 610.907471,239.196365 
	C619.121155,245.581955 627.218628,252.117157 635.452087,258.649323 
	C635.825989,257.930115 636.088257,257.661041 636.088440,257.391846 
	C636.099060,237.280746 632.517578,217.716354 626.844727,198.508621 
	C626.354980,196.850342 624.652222,195.091537 623.055908,194.292633 
	C611.899658,188.709366 600.540100,183.530960 589.400269,177.916183 
	C556.277222,161.221222 522.884949,145.012695 490.290283,127.337273 
	C474.152618,118.586159 459.534790,107.032448 443.882446,96.236420 
M300.974152,683.990295 
	C300.974152,683.990295 300.930206,684.046143 300.855469,684.759888 
	C301.069183,685.205139 301.222229,685.693726 301.505310,686.089355 
	C333.667175,731.046570 377.869812,748.572388 431.654480,740.582458 
	C498.124573,730.708008 539.645813,671.532410 540.167664,610.974854 
	C540.167664,549.277405 540.167664,487.580017 540.167664,424.804474 
	C538.942688,426.226074 538.482727,426.662842 538.136169,427.176117 
	C527.635498,442.727936 515.130188,456.530884 501.233063,469.072968 
	C498.623352,471.428162 497.747070,473.862274 497.755829,477.297546 
	C497.861023,518.628357 498.074554,559.962280 497.646637,601.288940 
	C497.539307,611.656555 496.259552,622.251953 493.760986,632.305847 
	C488.275909,654.377625 477.327667,673.376038 458.275818,686.762390 
	C446.420044,695.092651 433.031891,699.127380 418.633392,700.382263 
	C398.849915,702.106506 379.880798,699.509583 363.079895,688.510376 
	C335.011536,670.134705 322.333801,642.325684 321.272217,610.158264 
	C319.810822,565.875488 320.944641,521.508240 320.800262,477.177734 
	C320.792572,474.815704 319.940643,471.671753 318.303650,470.222626 
	C303.997589,457.558258 291.531433,443.328705 280.701080,427.621429 
	C280.152008,426.825104 279.274536,426.255188 278.058044,425.121277 
	C278.058044,481.129761 278.010925,536.289612 278.098969,591.449341 
	C278.115967,602.096741 278.125885,612.791443 279.077515,623.380005 
	C280.935791,644.056763 287.497498,663.307739 298.767914,681.624023 
	C299.496826,682.435364 300.225769,683.246765 300.974152,683.990295 
M549.210205,612.827332 
	C547.068604,662.195923 526.088745,701.305420 485.492401,729.795166 
	C486.018951,729.858337 486.549042,730.065796 486.993744,729.948669 
	C488.428741,729.570984 489.862579,729.151184 491.243561,728.611206 
	C519.773987,717.455383 544.841919,700.994019 567.268250,680.136597 
	C574.797058,673.134399 578.575012,665.167419 580.132690,655.260986 
	C584.792480,625.625671 582.558533,595.839539 582.870728,565.164124 
	C582.885315,479.506866 582.854431,393.849487 583.029419,308.192566 
	C583.039734,303.157593 581.397034,299.724335 577.362244,296.709198 
	C576.937256,303.707794 576.584900,310.436615 576.110840,317.156891 
	C573.927002,348.114655 565.380432,377.277008 551.490417,404.972839 
	C550.141235,407.662994 549.284546,410.920349 549.278381,413.916595 
	C549.153748,474.576569 549.184204,535.236816 549.193604,595.897034 
	C549.194397,601.222168 549.264587,606.547302 549.210205,612.827332 
M226.848206,607.963928 
	C226.848206,509.840942 226.848206,411.717957 226.848206,313.594971 
	C210.466690,330.770660 197.102676,349.357788 185.672668,369.377441 
	C183.168320,373.763824 182.102310,378.072968 182.167099,383.068329 
	C182.370193,398.730682 182.169876,414.397766 182.255066,430.062286 
	C182.445312,465.046600 182.464737,500.035156 183.121155,535.011292 
	C183.290466,544.032837 185.561569,553.014954 186.882217,562.849915 
	C193.572861,596.365112 207.601868,626.501404 227.892090,653.513123 
	C227.466232,638.583496 227.042221,623.718994 226.848206,607.963928 
M339.724274,475.810089 
	C359.939514,490.716675 381.860809,502.527802 405.239197,511.623199 
	C407.335052,512.438599 410.238800,512.728821 412.260925,511.949310 
	C441.845581,500.544189 469.259827,485.267181 493.053833,464.176788 
	C543.766052,419.226776 567.836975,362.370880 568.042053,294.899719 
	C568.066406,286.875122 564.612976,281.842163 558.613159,277.954742 
	C554.784241,280.090027 551.386414,283.061676 547.516602,283.929901 
	C538.018616,286.060791 528.342041,288.173401 518.666931,288.567535 
	C500.871216,289.292480 483.024902,288.759033 465.199738,288.783630 
	C448.106598,288.807190 438.006409,298.955750 437.932587,316.177002 
	C437.891846,325.672485 438.050171,335.170624 437.882935,344.663391 
	C437.599152,360.774994 425.040039,373.105957 409.155518,373.079041 
	C393.108490,373.051849 381.016083,360.877319 380.860413,344.480804 
	C380.771851,335.152557 380.846893,325.822815 380.834595,316.493744 
	C380.810272,298.015167 367.645874,287.961029 352.637115,288.619446 
	C336.342590,289.334320 319.991882,288.867584 303.666748,288.756500 
	C288.283234,288.651825 272.937775,288.190643 260.288513,277.736847 
	C254.016083,282.160004 249.784805,286.906189 250.701645,295.144928 
	C251.655640,303.717346 251.168320,312.441833 251.917831,321.046967 
	C254.117050,346.296570 260.707458,370.399689 271.531860,393.342072 
	C287.135254,426.413544 310.142883,453.366791 339.724274,475.810089 
M362.019379,678.515869 
	C368.572083,682.027100 374.954620,685.915466 381.715363,688.965637 
	C393.317444,694.199890 405.814789,693.342712 418.068359,692.899963 
	C431.132660,692.427979 443.225983,688.016418 453.813995,680.503235 
	C465.838501,671.970581 475.075409,660.770325 479.587402,646.565369 
	C483.023071,635.748962 487.373718,624.589600 487.612335,613.503174 
	C488.540649,570.367126 487.993408,527.199280 487.981659,484.043243 
	C487.981262,482.631775 487.835236,481.220367 487.734192,479.395142 
	C486.538788,479.914642 485.705017,480.098145 485.092316,480.569183 
	C462.923340,497.611298 438.515503,510.609650 412.507996,520.691040 
	C410.973907,521.285706 408.881195,521.638367 407.437073,521.086609 
	C384.255859,512.228638 362.086914,501.421234 341.996185,486.655945 
	C338.376556,483.995758 334.484741,481.705933 330.008575,478.781219 
	C330.008575,481.546051 330.008575,483.352875 330.008575,485.159698 
	C330.008545,523.816833 329.898285,562.474487 330.099762,601.130554 
	C330.140991,609.041748 330.619751,617.092773 332.162933,624.826599 
	C336.299255,645.556335 344.197723,664.443054 362.019379,678.515869 
M347.024536,197.522385 
	C340.800720,204.117065 334.576935,210.711746 328.155945,217.515335 
	C366.207214,225.269287 389.838654,254.166504 389.860931,292.401215 
	C389.871246,310.066559 389.755157,327.733185 389.936127,345.396759 
	C390.042633,355.792572 398.576599,363.969238 408.869476,364.050140 
	C420.500305,364.141541 428.778198,355.592163 428.847382,343.139801 
	C428.950195,324.641632 428.608185,306.136871 428.979248,287.645416 
	C429.463379,263.518066 440.246552,244.593475 459.456848,230.318771 
	C468.505737,223.594757 478.909454,219.875610 490.773041,217.383438 
	C470.940186,198.211731 453.595123,178.142059 439.541229,155.357666 
	C425.451050,132.514526 415.308472,108.101746 409.230804,81.691879 
	C399.342682,125.923904 377.461060,163.636536 347.024536,197.522385 
M322.391815,160.901184 
	C318.258820,164.259827 314.173981,167.679855 309.985352,170.967606 
	C268.489410,203.538681 226.994431,236.111115 185.423035,268.585724 
	C182.915955,270.544189 181.948486,272.532532 181.962860,275.688721 
	C182.081055,301.673523 182.029648,327.659149 182.029663,353.644501 
	C182.029663,354.737701 182.029678,355.830933 182.029678,358.064331 
	C183.063522,356.678314 183.460602,356.226562 183.769150,355.720764 
	C210.004089,312.715363 244.753433,277.272034 282.609863,244.618622 
	C303.025116,227.009247 324.055939,210.105362 341.910645,189.705475 
	C365.753510,162.463776 384.737122,132.473190 395.283630,97.562683 
	C396.052551,95.017372 396.845367,92.475990 397.500854,89.900658 
	C398.107635,87.516754 398.545013,85.089729 399.057007,82.681686 
	C387.265991,99.067032 374.254639,113.956215 359.789917,127.507263 
	C347.769775,138.768143 335.228455,149.472717 322.391815,160.901184 
M478.053467,191.427063 
	C497.019989,212.598572 519.315308,230.131409 540.600525,248.778397 
	C576.187622,279.954559 608.857666,313.744476 633.841797,354.308289 
	C634.309021,355.066833 634.955688,355.714874 636.214050,357.278717 
	C636.214050,354.514648 636.214050,352.887482 636.214050,351.260315 
	C636.214417,329.100586 636.214905,306.940857 636.215027,284.781128 
	C636.215088,270.752686 636.212891,270.755249 625.266235,262.179962 
	C583.468323,229.436584 541.485901,196.925049 499.945099,163.858612 
	C475.305450,144.245438 451.849396,123.241844 432.072327,98.518806 
	C427.681732,93.030182 423.702179,87.212730 419.533386,81.546684 
	C418.993164,81.772568 418.452911,81.998459 417.912689,82.224342 
	C423.146698,96.521126 427.722137,111.102959 433.759979,125.051781 
	C444.369110,149.561310 459.942688,170.963959 478.053467,191.427063 
M578.934082,112.552200 
	C576.147644,108.697342 572.193481,107.089760 567.692322,105.845924 
	C544.316956,99.386566 520.881348,93.091698 497.726166,85.903763 
	C470.532867,77.462326 442.816833,69.882866 420.502808,50.559025 
	C422.734436,58.487247 428.705109,67.866806 436.765198,76.441444 
	C454.429169,95.233002 475.576721,109.516022 498.124878,121.374382 
	C535.205322,140.875473 572.914673,159.180984 610.371765,177.964996 
	C613.710144,179.639114 617.142578,181.125702 620.807678,182.827713 
	C618.573975,171.048080 600.362061,136.036880 578.934082,112.552200 
M236.847885,216.363785 
	C266.503021,192.944473 296.517700,169.961182 325.665283,145.926346 
	C340.786987,133.457123 354.404419,119.158737 368.613983,105.595085 
	C370.218170,104.063805 371.253113,101.936165 372.552032,100.085060 
	C372.191711,99.817520 371.831390,99.549980 371.471069,99.282448 
	C370.347870,99.967903 369.149567,100.555717 368.112610,101.353287 
	C348.504852,116.434647 327.354065,129.095474 305.318176,140.167923 
	C269.326508,158.252777 233.078659,175.829391 196.860214,193.458725 
	C193.519363,195.084885 191.585739,197.129562 190.903549,200.688599 
	C188.340683,214.059189 185.481964,227.377808 183.197296,240.794769 
	C182.218887,246.540543 182.377151,252.479904 181.960342,259.288788 
	C200.693436,244.634644 218.485626,230.716553 236.847885,216.363785 
M374.099915,261.456757 
	C363.579559,241.214249 346.851929,229.601410 324.429474,226.351303 
	C321.548615,225.933731 317.626495,226.906509 315.400879,228.722916 
	C303.024323,238.823730 290.989716,249.345856 278.910858,259.807831 
	C274.830078,263.342346 270.962097,267.122559 266.416748,271.327148 
	C269.973450,273.180786 272.593323,275.314209 275.530823,275.928284 
	C283.295166,277.551300 291.173676,279.355377 299.048981,279.575470 
	C317.860199,280.101196 336.696045,279.826385 355.521271,279.732483 
	C364.107056,279.689667 371.449982,282.605103 377.871674,288.152679 
	C378.565552,288.752106 379.360504,289.234528 380.716431,290.207336 
	C380.576263,279.858765 378.512054,270.777039 374.099915,261.456757 
M508.495575,279.742767 
	C515.810730,279.490112 523.156494,279.568115 530.432495,278.893463 
	C537.965820,278.194946 545.399414,276.688232 551.802063,270.573486 
	C550.036926,269.113495 548.735291,268.076202 547.476318,266.989563 
	C532.987366,254.484238 518.388855,242.101547 504.109100,229.361618 
	C500.873596,226.475037 497.753510,225.554871 493.753906,226.180267 
	C472.089966,229.567688 455.769836,240.776077 445.203979,259.948914 
	C440.219604,268.993591 437.529999,278.789764 438.103027,290.621185 
	C447.536743,280.473969 458.697418,279.329376 470.513397,279.664795 
	C482.832153,280.014496 495.168579,279.742462 508.495575,279.742767 
M311.183899,58.687298 
	C294.273682,66.139709 264.153778,86.396828 259.056732,94.826073 
	C287.217102,86.226463 314.713287,78.491531 341.718719,69.312744 
	C355.923553,64.484703 369.408722,57.412720 382.920074,50.748215 
	C386.964294,48.753391 389.999237,44.712414 393.496582,41.608879 
	C393.200439,41.174767 392.904297,40.740654 392.608154,40.306545 
	C364.775787,42.119610 337.250488,45.348957 311.183899,58.687298 
M500.091492,55.425068 
	C476.525879,44.339756 451.167755,42.401882 424.422882,40.042320 
	C426.709961,42.776863 427.765320,44.864838 429.462616,45.927940 
	C437.736176,51.110176 445.645264,57.517361 454.665985,60.743530 
	C482.016937,70.525337 509.800995,79.102608 537.463989,88.001030 
	C544.561340,90.284058 551.834534,92.020630 559.026917,94.008255 
	C541.716431,77.714340 522.315369,65.074295 500.091492,55.425068 
z"/>
<path fill="#6854A3" opacity="1.000000" stroke="none" 
	d="
M22.023159,916.843872 
	C20.256971,920.699768 18.239498,924.465332 16.809406,928.442017 
	C15.789133,931.279236 14.308513,932.314941 11.358129,932.058289 
	C8.234173,931.786438 5.073463,931.937073 1.464403,931.951599 
	C1.000000,932.000000 1.000000,931.500000 1.000003,931.250000 
	C5.872660,918.901123 10.795415,906.822144 15.602138,894.697144 
	C19.453783,884.981201 23.289469,875.254700 26.855328,865.432373 
	C27.818449,862.779358 29.020447,861.928223 31.810556,861.920898 
	C42.299053,861.893372 42.278904,861.789978 46.020512,871.539612 
	C53.093452,889.969971 60.194721,908.389404 67.274025,926.817322 
	C67.859871,928.342407 68.368004,929.897339 69.026283,931.761230 
	C64.243362,931.761230 59.832283,931.761230 55.209068,931.761230 
	C53.341507,927.040161 51.455120,922.271423 49.394363,916.926636 
	C45.813236,916.233643 42.402248,915.950806 39.000671,916.037415 
	C33.338322,916.181519 27.682005,916.562561 22.023159,916.843872 
M31.679077,904.005798 
	C35.737144,904.005798 39.795216,904.005798 44.460880,904.005798 
	C41.336308,895.911011 38.535870,888.656006 35.302013,880.278076 
	C32.075058,888.787476 29.297501,896.111755 26.377197,903.812439 
	C28.432608,903.903442 29.587288,903.954529 31.679077,904.005798 
z"/>
<path fill="#6854A3" opacity="1.000000" stroke="none" 
	d="
M817.000000,931.666687 
	C803.028503,932.014526 803.027893,932.014771 798.198242,919.017761 
	C798.083069,918.707825 798.024048,918.377136 797.702026,917.322021 
	C788.318176,916.673401 779.171021,916.758850 770.023926,916.844299 
	C768.305298,920.564453 766.268127,924.177063 764.965271,928.037537 
	C763.850220,931.341736 762.080933,932.404297 758.746826,932.066284 
	C755.818420,931.769409 752.836121,932.004272 749.276550,932.004272 
	C753.020325,922.170654 756.518005,912.874817 760.096497,903.610168 
	C765.002869,890.907593 770.061523,878.262756 774.836060,865.511292 
	C775.800415,862.935669 776.878662,861.924927 779.734863,861.915100 
	C790.299561,861.878723 790.266602,861.769775 794.004639,871.487549 
	C801.455872,890.858398 808.946655,910.214050 816.710571,929.787964 
	C817.000000,930.444458 817.000000,930.888916 817.000000,931.666687 
M789.990601,904.000305 
	C790.501038,903.189514 791.628296,902.155884 791.428101,901.601868 
	C788.975769,894.813965 786.328918,888.096375 783.311829,880.269714 
	C780.106628,888.703979 777.308594,896.066589 774.291382,904.006042 
	C779.793518,904.006042 784.442810,904.006042 789.990601,904.000305 
z"/>
<path fill="#6855A3" opacity="1.000000" stroke="none" 
	d="
M364.467590,934.000000 
	C363.032166,933.480713 362.115234,932.810547 361.088989,932.464417 
	C340.774994,925.613770 330.598846,905.330750 337.241791,884.865356 
	C343.325867,866.121643 365.160034,855.463013 384.707367,861.719604 
	C391.970398,864.044250 398.327209,867.764648 403.126556,873.696594 
	C400.198334,876.844971 397.408539,879.844543 394.632111,882.829773 
	C378.983704,870.626526 365.334595,869.811951 355.346466,880.389832 
	C346.821869,889.417908 346.704163,904.589233 355.088531,913.639709 
	C364.815674,924.139465 378.516754,923.350647 393.953644,911.652466 
	C397.094116,914.414246 400.185669,917.133118 403.513702,920.059875 
	C397.120239,926.946106 390.067627,931.532410 381.157837,933.657837 
	C375.645081,934.000000 370.290131,934.000000 364.467590,934.000000 
z"/>
<path fill="#6855A3" opacity="1.000000" stroke="none" 
	d="
M140.463181,934.000000 
	C133.352005,930.555359 127.161469,926.635620 124.293777,918.610535 
	C127.709602,916.529175 131.190430,914.408264 134.884613,912.157349 
	C136.251801,913.857910 137.198654,915.814270 138.758759,916.803406 
	C141.449509,918.509399 144.511780,920.625610 147.436691,920.653931 
	C149.816681,920.677063 153.118332,918.388123 154.322357,916.196655 
	C155.208664,914.583435 154.090393,910.825989 152.598099,909.157410 
	C149.074524,905.217590 144.750351,902.002319 140.835175,898.401367 
	C137.899063,895.700867 134.838242,893.072327 132.284775,890.032227 
	C126.371750,882.992432 125.656044,875.612061 129.827209,868.871826 
	C134.112091,861.947876 142.806900,858.544373 151.134384,860.531311 
	C157.604599,862.075195 162.790710,865.791870 166.525299,871.629456 
	C163.547745,874.236511 160.553284,876.858337 157.555893,879.482788 
	C154.845642,877.496277 152.473129,874.794373 149.552460,873.916931 
	C147.156815,873.197144 143.219650,873.731812 141.555954,875.347656 
	C138.966721,877.862427 141.107681,880.869629 143.505524,883.003479 
	C149.469559,888.310913 155.589645,893.449585 161.421600,898.897400 
	C172.741653,909.471985 169.806091,928.637390 153.091461,933.649170 
	C148.975449,934.000000 144.950912,934.000000 140.463181,934.000000 
z"/>
<path fill="#6855A3" opacity="1.000000" stroke="none" 
	d="
M453.463196,934.000000 
	C442.057098,927.417175 440.616913,926.034424 437.310791,918.751160 
	C439.023315,917.632629 440.763916,916.443726 442.556915,915.339844 
	C444.240936,914.303040 445.980316,913.356201 447.957947,912.218750 
	C449.228424,913.819092 450.159210,915.778381 451.709106,916.769348 
	C454.394318,918.486389 457.445038,920.605225 460.376404,920.657776 
	C462.749878,920.700195 466.061432,918.452393 467.280884,916.279724 
	C468.183960,914.670715 467.112061,910.940002 465.656433,909.229797 
	C462.559998,905.591614 458.627869,902.667969 455.062958,899.424377 
	C452.234253,896.850708 449.294373,894.377625 446.662140,891.613953 
	C439.381012,883.969055 438.243652,875.488647 443.311249,868.120667 
	C448.482086,860.602600 458.861755,857.602783 467.749573,861.802917 
	C472.111298,863.864136 475.822052,867.302795 480.485657,870.580811 
	C476.577209,874.113953 473.560791,876.840759 470.566071,879.547913 
	C467.962463,877.577454 465.741364,874.870850 462.982056,874.106079 
	C460.392792,873.388550 456.340179,873.742310 454.535553,875.385864 
	C451.809845,877.868408 454.220825,880.925293 456.539856,882.999329 
	C461.747223,887.656250 467.158203,892.087646 472.317139,896.796204 
	C476.798340,900.886047 480.636871,905.488892 481.000671,911.965271 
	C481.616028,922.920166 477.060608,929.435486 466.091583,933.649170 
	C461.975464,934.000000 457.950897,934.000000 453.463196,934.000000 
z"/>
<path fill="#F8B3D2" opacity="1.000000" stroke="none" 
	d="
M175.452820,144.033432 
	C164.576248,166.565933 155.773651,190.051117 151.783279,215.001846 
	C149.429062,229.722183 147.357971,244.678635 147.278625,259.540222 
	C146.840485,341.599487 147.055130,423.662201 147.041656,505.723755 
	C147.041351,507.553925 146.989731,509.384064 146.838501,511.682251 
	C143.664444,508.737366 140.379456,505.504425 137.600830,501.882935 
	C116.975388,475.001221 97.322052,447.434906 80.625336,417.902435 
	C63.475971,387.569336 48.723927,356.161224 42.499130,321.560577 
	C37.036167,291.194611 38.412891,261.314697 53.009083,233.305740 
	C61.856575,216.328079 74.086357,202.025650 88.997520,189.888229 
	C113.526558,169.922089 141.424683,156.392761 170.972900,145.851562 
	C172.379623,145.349731 173.726181,144.679291 175.452820,144.033432 
z"/>
<path fill="#F7B3D2" opacity="1.000000" stroke="none" 
	d="
M671.516663,520.550415 
	C671.246704,507.399506 671.166626,493.923553 671.159790,480.447540 
	C671.121643,405.033508 671.401184,329.617645 670.944824,254.206207 
	C670.725403,217.942917 661.269958,183.593613 645.963684,150.444244 
	C653.468018,157.090973 661.152649,163.947510 668.514832,171.134399 
	C679.479492,181.838150 690.474854,192.531036 700.995544,203.664764 
	C721.540710,225.407089 740.917297,248.135651 756.272461,273.962036 
	C766.603027,291.337219 774.459290,309.773376 777.710632,329.841736 
	C781.359863,352.365967 777.479248,373.736725 766.692505,393.844727 
	C752.149658,420.954681 729.581970,440.246735 704.878174,457.519775 
	C694.825745,464.548462 685.140686,472.102539 675.084900,479.126221 
	C672.478394,480.946777 671.884338,482.899231 671.895569,485.763611 
	C671.940613,497.250458 671.807556,508.738007 671.516663,520.550415 
z"/>
<path fill="#6855A4" opacity="1.000000" stroke="none" 
	d="
M527.641235,863.506714 
	C532.068726,862.573486 536.359131,862.054871 540.749756,861.524109 
	C546.255127,877.955444 551.518494,893.664124 557.225952,910.698486 
	C561.881714,896.935608 566.105957,884.485901 570.303955,872.027344 
	C574.068604,860.854736 574.055908,860.850464 586.744263,862.464355 
	C590.626465,885.396484 594.528748,908.446655 598.473511,931.747925 
	C593.968384,931.747925 589.885315,931.747925 585.529846,931.747925 
	C583.105957,917.712524 580.716553,903.877014 578.327209,890.041565 
	C577.988403,890.033752 577.649658,890.026001 577.310852,890.018250 
	C573.492065,901.283630 569.663391,912.545654 565.857605,923.815430 
	C563.048218,932.134705 563.061401,932.143982 554.328613,931.999329 
	C553.340698,931.982971 552.354248,931.875671 551.143372,931.795837 
	C546.437256,917.759216 541.743652,903.759888 537.050110,889.760620 
	C536.759888,889.757996 536.469727,889.755432 536.179565,889.752808 
	C533.719543,903.635193 531.259583,917.517639 528.747498,931.694031 
	C524.620911,931.694031 520.536194,931.694031 515.728149,931.694031 
	C519.674194,908.983765 523.589172,886.452515 527.641235,863.506714 
z"/>
<path fill="#6754A2" opacity="1.000000" stroke="none" 
	d="
M703.871826,870.103149 
	C715.637451,882.780151 718.338684,900.926392 710.909119,915.687317 
	C705.089905,927.248657 695.187500,931.803772 682.805603,931.973389 
	C675.155701,932.078125 667.503296,931.992737 659.454285,931.992737 
	C659.454285,908.793335 659.454285,885.766174 659.454285,861.907349 
	C674.424683,862.999390 690.261169,858.686829 703.871826,870.103149 
M694.014832,915.653076 
	C703.243042,908.793701 702.586060,892.768982 698.726257,885.356323 
	C694.482849,877.207031 684.420227,873.380066 672.698608,875.625000 
	C672.698608,889.973694 672.698608,904.341125 672.698608,920.263489 
	C680.006653,918.784790 686.701477,917.430176 694.014832,915.653076 
z"/>
<path fill="#6956A4" opacity="1.000000" stroke="none" 
	d="
M221.991150,867.132324 
	C222.079956,865.205566 222.168747,863.763855 222.266983,862.168762 
	C226.716675,862.168762 230.837738,862.168762 235.546768,862.168762 
	C235.546768,870.627747 235.546768,879.020081 235.546768,887.695557 
	C243.542252,887.695557 250.957458,887.695557 258.933899,887.695557 
	C258.933899,879.313538 258.933899,870.925598 258.933899,862.271851 
	C263.729767,862.271851 267.973389,862.271851 272.540466,862.271851 
	C272.540466,885.405151 272.540466,908.438782 272.540466,931.741333 
	C268.113800,931.741333 263.872864,931.741333 259.256409,931.741333 
	C259.256409,921.673706 259.256409,911.741699 259.256409,901.410461 
	C251.364685,901.410461 243.834091,901.410461 235.852356,901.410461 
	C235.852356,911.376526 235.852356,921.291626 235.852356,931.605286 
	C231.198135,931.605286 226.974350,931.605286 221.991135,931.605286 
	C221.991135,910.410889 221.991135,889.014160 221.991150,867.132324 
z"/>
<path fill="#6653A3" opacity="1.000000" stroke="none" 
	d="
M316.973022,919.998596 
	C320.261230,919.998596 323.054810,919.998596 326.108337,919.998596 
	C326.108337,924.104614 326.108337,927.711121 326.108337,931.660645 
	C313.669952,931.660645 301.244354,931.660645 288.443481,931.660645 
	C288.443481,908.711487 288.443481,885.665161 288.443481,862.307617 
	C300.862854,862.307617 313.266449,862.307617 326.023407,862.307617 
	C326.023407,866.413086 326.023407,870.448547 326.023407,874.874329 
	C317.917572,874.874329 309.963806,874.874329 302.298767,874.874329 
	C301.819183,875.522461 301.474365,875.773376 301.450165,876.052185 
	C300.413055,887.998230 300.416565,887.998535 312.362396,887.998596 
	C316.830261,887.998657 321.298096,887.998596 326.065491,887.998596 
	C326.065491,892.023926 326.065491,895.616455 326.065491,899.779663 
	C318.068298,899.779663 310.003387,899.779663 301.301788,899.779663 
	C301.301788,905.932739 301.147552,911.552429 301.444916,917.148132 
	C301.498047,918.147888 303.360016,919.768311 304.491730,919.864380 
	C308.462494,920.201111 312.479156,919.997192 316.973022,919.998596 
z"/>
<path fill="#6653A3" opacity="1.000000" stroke="none" 
	d="
M99.214134,887.998840 
	C105.667435,887.998779 111.643585,887.998779 117.995018,887.998779 
	C117.995018,892.036743 117.995018,895.739746 117.995018,899.853149 
	C109.972282,899.853149 102.023834,899.853149 93.325867,899.853149 
	C93.325867,905.981323 93.151039,911.745117 93.504341,917.476318 
	C93.560776,918.391907 95.959702,919.835388 97.317741,919.885010 
	C104.111084,920.133423 110.918419,919.998657 118.044357,919.998657 
	C118.044357,923.992676 118.044357,927.582397 118.044357,931.588623 
	C105.611076,931.588623 93.093193,931.588623 80.320847,931.588623 
	C80.320847,908.570557 80.320847,885.643555 80.320847,862.356995 
	C92.760902,862.356995 105.160759,862.356995 117.968857,862.356995 
	C117.968857,866.327820 117.968857,870.364868 117.968857,874.977783 
	C109.907013,874.977783 101.836105,874.977783 93.279488,874.977783 
	C93.279488,877.828125 93.490952,880.144287 93.234024,882.407349 
	C92.747444,886.693420 94.208229,888.783875 99.214134,887.998840 
z"/>
<path fill="#6653A3" opacity="1.000000" stroke="none" 
	d="
M647.111145,920.000854 
	C647.111145,923.799316 647.111145,927.597778 647.111145,931.697876 
	C634.577087,931.697876 622.163940,931.697876 609.402588,931.697876 
	C609.402588,908.673157 609.402588,885.643799 609.402588,862.305664 
	C621.838928,862.305664 634.233093,862.305664 647.304810,862.305664 
	C647.304810,865.914612 647.304810,869.500000 646.729980,873.540039 
	C639.610046,873.996399 633.063293,873.922363 626.520996,874.058350 
	C625.058655,874.088745 623.611633,874.856140 622.157593,875.284241 
	C622.192139,878.794373 622.226746,882.304443 622.399170,886.615601 
	C630.728333,887.611450 638.919617,887.806274 647.110901,888.001160 
	C647.110901,891.795898 647.110901,895.590576 647.110901,899.928650 
	C638.961060,899.928650 630.905029,899.928650 622.260742,899.928650 
	C622.260742,906.234619 622.260742,912.005188 622.391846,918.591125 
	C630.719055,919.604553 638.915100,919.802673 647.111145,920.000854 
z"/>
<path fill="#6552A2" opacity="1.000000" stroke="none" 
	d="
M186.719116,902.000000 
	C186.718979,892.876465 186.718979,884.252930 186.718979,875.112183 
	C182.420456,875.112183 178.513916,875.112183 174.350861,875.112183 
	C174.350861,870.671509 174.350861,866.740967 174.350861,862.402588 
	C186.978439,862.402588 199.680191,862.402588 212.699677,862.402588 
	C212.699677,866.369751 212.699677,870.422852 212.699677,874.903931 
	C208.696014,874.903931 204.767334,874.903931 200.292572,874.903931 
	C200.292572,894.022583 200.292572,912.732483 200.292572,931.716797 
	C195.660263,931.716797 191.574646,931.716797 186.719254,931.716797 
	C186.719254,921.973145 186.719254,912.236572 186.719116,902.000000 
z"/>
<path fill="#6854A3" opacity="1.000000" stroke="none" 
	d="
M426.676453,862.432434 
	C427.052612,885.635315 427.052612,908.534241 427.052612,931.718506 
	C422.787109,931.718506 418.720520,931.718506 414.359222,931.718506 
	C414.359222,908.580261 414.359222,885.571899 414.359222,862.128540 
	C418.430786,862.128540 422.365509,862.128540 426.676453,862.432434 
z"/>
<path fill="#6754A2" opacity="1.000000" stroke="none" 
	d="
M727.056458,888.000000 
	C727.056458,879.215210 727.056458,870.930420 727.056458,862.322632 
	C731.460632,862.322632 735.519409,862.322632 739.942017,862.322632 
	C739.942017,885.355713 739.942017,908.359497 739.942017,931.684448 
	C735.877075,931.684448 731.804077,931.684448 727.056458,931.684448 
	C727.056458,917.294067 727.056458,902.897034 727.056458,888.000000 
z"/>
<path fill="#645982" opacity="1.000000" stroke="none" 
	d="
M770.487549,916.909058 
	C779.171021,916.758850 788.318176,916.673401 797.665283,916.956909 
	C788.893860,917.208557 779.922607,917.091248 770.487549,916.909058 
z"/>
<path fill="#645982" opacity="1.000000" stroke="none" 
	d="
M22.486881,916.909302 
	C27.682005,916.562561 33.338322,916.181519 39.000671,916.037415 
	C42.402248,915.950806 45.813236,916.233643 49.163124,916.650391 
	C40.387711,916.958496 31.669163,916.966675 22.486881,916.909302 
z"/>
<path fill="#645982" opacity="1.000000" stroke="none" 
	d="
M622.604980,875.196655 
	C623.611633,874.856140 625.058655,874.088745 626.520996,874.058350 
	C633.063293,873.922363 639.610046,873.996399 646.632690,873.996826 
	C644.160645,874.332764 641.217712,874.850708 638.259827,874.958862 
	C633.195557,875.144043 628.122009,875.072693 622.604980,875.196655 
z"/>
<path fill="#645982" opacity="1.000000" stroke="none" 
	d="
M646.895386,919.615784 
	C638.915100,919.802673 630.719055,919.604553 622.324280,919.034302 
	C630.310242,918.851685 638.494995,919.041199 646.895386,919.615784 
z"/>
<path fill="#645982" opacity="1.000000" stroke="none" 
	d="
M646.895386,887.616028 
	C638.919617,887.806274 630.728333,887.611450 622.337036,887.048218 
	C630.317932,886.863525 638.498901,887.047241 646.895386,887.616028 
z"/>
<path fill="#F7B3D2" opacity="1.000000" stroke="none" 
	d="
M339.432251,475.601624 
	C310.142883,453.366791 287.135254,426.413544 271.531860,393.342072 
	C260.707458,370.399689 254.117050,346.296570 251.917831,321.046967 
	C251.168320,312.441833 251.655640,303.717346 250.701645,295.144928 
	C249.784805,286.906189 254.016083,282.160004 260.288513,277.736847 
	C272.937775,288.190643 288.283234,288.651825 303.666748,288.756500 
	C319.991882,288.867584 336.342590,289.334320 352.637115,288.619446 
	C367.645874,287.961029 380.810272,298.015167 380.834595,316.493744 
	C380.846893,325.822815 380.771851,335.152557 380.860413,344.480804 
	C381.016083,360.877319 393.108490,373.051849 409.155518,373.079041 
	C425.040039,373.105957 437.599152,360.774994 437.882935,344.663391 
	C438.050171,335.170624 437.891846,325.672485 437.932587,316.177002 
	C438.006409,298.955750 448.106598,288.807190 465.199738,288.783630 
	C483.024902,288.759033 500.871216,289.292480 518.666931,288.567535 
	C528.342041,288.173401 538.018616,286.060791 547.516602,283.929901 
	C551.386414,283.061676 554.784241,280.090027 558.613159,277.954742 
	C564.612976,281.842163 568.066406,286.875122 568.042053,294.899719 
	C567.836975,362.370880 543.766052,419.226776 493.053833,464.176788 
	C469.259827,485.267181 441.845581,500.544189 412.260925,511.949310 
	C410.238800,512.728821 407.335052,512.438599 405.239197,511.623199 
	C381.860809,502.527802 359.939514,490.716675 339.432251,475.601624 
M444.782959,417.847260 
	C440.153046,414.340057 435.324799,411.061737 430.944977,407.265991 
	C425.814850,402.820038 423.118896,401.744263 417.683563,405.489349 
	C411.523315,409.733948 406.272583,409.460999 400.449005,405.206848 
	C396.294098,402.171631 391.874176,402.553467 388.304230,406.401825 
	C381.103973,414.163544 372.660278,419.634277 362.277283,422.245544 
	C360.622375,422.661743 358.452606,425.494537 358.533539,427.109253 
	C358.616516,428.765045 360.882263,431.086487 362.691925,431.745422 
	C370.160400,434.464874 377.916870,436.393188 385.385742,439.111755 
	C400.111420,444.471588 414.788147,445.327545 429.763550,440.171448 
	C438.539581,437.149719 447.529358,434.746094 456.287781,431.678314 
	C457.864502,431.126007 459.835968,428.621246 459.733917,427.149017 
	C459.611298,425.379578 457.812012,423.097778 456.121307,422.198883 
	C452.792328,420.428772 449.037262,419.459930 444.782959,417.847260 
z"/>
<path fill="#5D4B97" opacity="1.000000" stroke="none" 
	d="
M361.763550,678.264160 
	C344.197723,664.443054 336.299255,645.556335 332.162933,624.826599 
	C330.619751,617.092773 330.140991,609.041748 330.099762,601.130554 
	C329.898285,562.474487 330.008545,523.816833 330.008575,485.159698 
	C330.008575,483.352875 330.008575,481.546051 330.008575,478.781219 
	C334.484741,481.705933 338.376556,483.995758 341.996185,486.655945 
	C362.086914,501.421234 384.255859,512.228638 407.437073,521.086609 
	C408.881195,521.638367 410.973907,521.285706 412.507996,520.691040 
	C438.515503,510.609650 462.923340,497.611298 485.092316,480.569183 
	C485.705017,480.098145 486.538788,479.914642 487.734192,479.395142 
	C487.835236,481.220367 487.981262,482.631775 487.981659,484.043243 
	C487.993408,527.199280 488.540649,570.367126 487.612335,613.503174 
	C487.373718,624.589600 483.023071,635.748962 479.587402,646.565369 
	C475.075409,660.770325 465.838501,671.970581 453.813995,680.503235 
	C443.225983,688.016418 431.132660,692.427979 418.068359,692.899963 
	C405.814789,693.342712 393.317444,694.199890 381.715363,688.965637 
	C374.954620,685.915466 368.572083,682.027100 361.763550,678.264160 
z"/>
<path fill="#F7B3D2" opacity="1.000000" stroke="none" 
	d="
M298.445709,681.007324 
	C287.497498,663.307739 280.935791,644.056763 279.077515,623.380005 
	C278.125885,612.791443 278.115967,602.096741 278.098969,591.449341 
	C278.010925,536.289612 278.058044,481.129761 278.058044,425.121277 
	C279.274536,426.255188 280.152008,426.825104 280.701080,427.621429 
	C291.531433,443.328705 303.997589,457.558258 318.303650,470.222626 
	C319.940643,471.671753 320.792572,474.815704 320.800262,477.177734 
	C320.944641,521.508240 319.810822,565.875488 321.272217,610.158264 
	C322.333801,642.325684 335.011536,670.134705 363.079895,688.510376 
	C379.880798,699.509583 398.849915,702.106506 418.633392,700.382263 
	C433.031891,699.127380 446.420044,695.092651 458.275818,686.762390 
	C477.327667,673.376038 488.275909,654.377625 493.760986,632.305847 
	C496.259552,622.251953 497.539307,611.656555 497.646637,601.288940 
	C498.074554,559.962280 497.861023,518.628357 497.755829,477.297546 
	C497.747070,473.862274 498.623352,471.428162 501.233063,469.072968 
	C515.130188,456.530884 527.635498,442.727936 538.136169,427.176117 
	C538.482727,426.662842 538.942688,426.226074 540.167664,424.804474 
	C540.167664,487.580017 540.167664,549.277405 539.770813,611.506042 
	C533.327026,618.414734 527.411560,624.923218 521.210022,631.146667 
	C496.589874,655.853821 472.752747,681.420044 444.375580,702.055542 
	C427.620026,714.239929 409.974457,724.481201 389.238464,728.494324 
	C369.365356,732.340515 351.525299,727.501282 336.051697,715.254761 
	C325.282990,706.731995 315.808258,696.578918 305.687531,687.227722 
	C304.303467,685.948914 302.525696,685.096191 300.930206,684.046143 
	C300.930206,684.046143 300.974152,683.990295 300.992767,683.656616 
	C300.156158,682.551086 299.300934,681.779236 298.445709,681.007324 
z"/>
<path fill="#F7B3D2" opacity="1.000000" stroke="none" 
	d="
M347.264160,197.261063 
	C377.461060,163.636536 399.342682,125.923904 409.230804,81.691879 
	C415.308472,108.101746 425.451050,132.514526 439.541229,155.357666 
	C453.595123,178.142059 470.940186,198.211731 490.773041,217.383438 
	C478.909454,219.875610 468.505737,223.594757 459.456848,230.318771 
	C440.246552,244.593475 429.463379,263.518066 428.979248,287.645416 
	C428.608185,306.136871 428.950195,324.641632 428.847382,343.139801 
	C428.778198,355.592163 420.500305,364.141541 408.869476,364.050140 
	C398.576599,363.969238 390.042633,355.792572 389.936127,345.396759 
	C389.755157,327.733185 389.871246,310.066559 389.860931,292.401215 
	C389.838654,254.166504 366.207214,225.269287 328.155945,217.515335 
	C334.576935,210.711746 340.800720,204.117065 347.264160,197.261063 
z"/>
<path fill="#F6B2D2" opacity="1.000000" stroke="none" 
	d="
M322.654907,160.662445 
	C335.228455,149.472717 347.769775,138.768143 359.789917,127.507263 
	C374.254639,113.956215 387.265991,99.067032 399.057007,82.681686 
	C398.545013,85.089729 398.107635,87.516754 397.500854,89.900658 
	C396.845367,92.475990 396.052551,95.017372 395.283630,97.562683 
	C384.737122,132.473190 365.753510,162.463776 341.910645,189.705475 
	C324.055939,210.105362 303.025116,227.009247 282.609863,244.618622 
	C244.753433,277.272034 210.004089,312.715363 183.769150,355.720764 
	C183.460602,356.226562 183.063522,356.678314 182.029678,358.064331 
	C182.029678,355.830933 182.029663,354.737701 182.029663,353.644501 
	C182.029648,327.659149 182.081055,301.673523 181.962860,275.688721 
	C181.948486,272.532532 182.915955,270.544189 185.423035,268.585724 
	C226.994431,236.111115 268.489410,203.538681 309.985352,170.967606 
	C314.173981,167.679855 318.258820,164.259827 322.654907,160.662445 
z"/>
<path fill="#F6B2D2" opacity="1.000000" stroke="none" 
	d="
M477.815308,191.164124 
	C459.942688,170.963959 444.369110,149.561310 433.759979,125.051781 
	C427.722137,111.102959 423.146698,96.521126 417.912689,82.224342 
	C418.452911,81.998459 418.993164,81.772568 419.533386,81.546684 
	C423.702179,87.212730 427.681732,93.030182 432.072327,98.518806 
	C451.849396,123.241844 475.305450,144.245438 499.945099,163.858612 
	C541.485901,196.925049 583.468323,229.436584 625.266235,262.179962 
	C636.212891,270.755249 636.215088,270.752686 636.215027,284.781128 
	C636.214905,306.940857 636.214417,329.100586 636.214050,351.260315 
	C636.214050,352.887482 636.214050,354.514648 636.214050,357.278717 
	C634.955688,355.714874 634.309021,355.066833 633.841797,354.308289 
	C608.857666,313.744476 576.187622,279.954559 540.600525,248.778397 
	C519.315308,230.131409 497.019989,212.598572 477.815308,191.164124 
z"/>
<path fill="#F5B2D1" opacity="1.000000" stroke="none" 
	d="
M186.867172,562.015137 
	C185.561569,553.014954 183.290466,544.032837 183.121155,535.011292 
	C182.464737,500.035156 182.445312,465.046600 182.255066,430.062286 
	C182.169876,414.397766 182.370193,398.730682 182.167099,383.068329 
	C182.102310,378.072968 183.168320,373.763824 185.672668,369.377441 
	C197.102676,349.357788 210.466690,330.770660 226.848206,313.594971 
	C226.848206,411.717957 226.848206,509.840942 226.537659,608.139160 
	C225.533524,606.552246 225.264954,604.409851 224.080826,603.086792 
	C211.760818,589.320557 199.293579,575.686157 186.867172,562.015137 
z"/>
<path fill="#F7B3D2" opacity="1.000000" stroke="none" 
	d="
M235.991348,615.970154 
	C235.947800,614.640137 235.866180,613.310059 235.866119,611.980042 
	C235.860809,510.206635 235.882568,408.433167 235.787155,306.659851 
	C235.783340,302.585205 236.838409,299.603577 240.882492,297.300964 
	C241.205215,300.730164 241.691544,303.900787 241.774170,307.081909 
	C242.688843,342.290161 251.755493,375.336365 267.817444,406.588623 
	C268.813538,408.526733 268.967590,411.063568 268.969757,413.322327 
	C269.029724,475.452362 269.165131,537.583008 268.934540,599.712219 
	C268.861725,619.338379 270.802490,638.538269 276.746490,657.452881 
	C272.959106,654.148987 269.458405,650.612915 265.998718,647.037170 
	C255.987442,636.690002 245.992630,626.326965 235.991348,615.970154 
z"/>
<path fill="#F8B3D2" opacity="1.000000" stroke="none" 
	d="
M592.123901,554.968994 
	C592.057922,553.474243 591.934326,551.979431 591.934082,550.484680 
	C591.923828,473.054260 591.924072,395.623840 591.923279,318.193420 
	C591.923279,316.740479 591.923340,315.287506 591.923340,313.834564 
	C592.266785,313.652161 592.610168,313.469788 592.953613,313.287415 
	C598.376160,320.074005 604.230957,326.564545 609.126404,333.712158 
	C617.857849,346.460480 626.071167,359.566925 634.328918,372.632446 
	C635.405029,374.335052 635.921387,376.680359 635.924927,378.729340 
	C636.000793,423.189026 635.966980,467.648926 635.610596,512.722168 
	C625.621521,522.608826 615.967896,531.873596 606.334106,541.158936 
	C601.578430,545.742554 596.859436,550.364441 592.123901,554.968994 
z"/>
<path fill="#F4B2D2" opacity="1.000000" stroke="none" 
	d="
M549.302612,611.872437 
	C549.264587,606.547302 549.194397,601.222168 549.193604,595.897034 
	C549.184204,535.236816 549.153748,474.576569 549.278381,413.916595 
	C549.284546,410.920349 550.141235,407.662994 551.490417,404.972839 
	C565.380432,377.277008 573.927002,348.114655 576.110840,317.156891 
	C576.584900,310.436615 576.937256,303.707794 577.362244,296.709198 
	C581.397034,299.724335 583.039734,303.157593 583.029419,308.192566 
	C582.854431,393.849487 582.885315,479.506866 582.531982,565.798096 
	C573.536621,575.380981 564.867126,584.317322 556.228943,593.283936 
	C551.867859,597.810791 548.443298,602.711426 549.913757,609.550659 
	C550.063843,610.248535 549.522888,611.094971 549.302612,611.872437 
z"/>
<path fill="#F6B2D2" opacity="1.000000" stroke="none" 
	d="
M579.174133,112.818947 
	C600.362061,136.036880 618.573975,171.048080 620.807678,182.827713 
	C617.142578,181.125702 613.710144,179.639114 610.371765,177.964996 
	C572.914673,159.180984 535.205322,140.875473 498.124878,121.374382 
	C475.576721,109.516022 454.429169,95.233002 436.765198,76.441444 
	C428.705109,67.866806 422.734436,58.487247 420.502808,50.559025 
	C442.816833,69.882866 470.532867,77.462326 497.726166,85.903763 
	C520.881348,93.091698 544.316956,99.386566 567.692322,105.845924 
	C572.193481,107.089760 576.147644,108.697342 579.174133,112.818947 
z"/>
<path fill="#FEFEFF" opacity="1.000000" stroke="none" 
	d="
M300.892822,684.403015 
	C302.525696,685.096191 304.303467,685.948914 305.687531,687.227722 
	C315.808258,696.578918 325.282990,706.731995 336.051697,715.254761 
	C351.525299,727.501282 369.365356,732.340515 389.238464,728.494324 
	C409.974457,724.481201 427.620026,714.239929 444.375580,702.055542 
	C472.752747,681.420044 496.589874,655.853821 521.210022,631.146667 
	C527.411560,624.923218 533.327026,618.414734 539.711060,611.964966 
	C539.645813,671.532410 498.124573,730.708008 431.654480,740.582458 
	C377.869812,748.572388 333.667175,731.046570 301.505310,686.089355 
	C301.222229,685.693726 301.069183,685.205139 300.892822,684.403015 
z"/>
<path fill="#F5B2D2" opacity="1.000000" stroke="none" 
	d="
M444.229309,96.746750 
	C459.534790,107.032448 474.152618,118.586159 490.290283,127.337273 
	C522.884949,145.012695 556.277222,161.221222 589.400269,177.916183 
	C600.540100,183.530960 611.899658,188.709366 623.055908,194.292633 
	C624.652222,195.091537 626.354980,196.850342 626.844727,198.508621 
	C632.517578,217.716354 636.099060,237.280746 636.088440,257.391846 
	C636.088257,257.661041 635.825989,257.930115 635.452087,258.649323 
	C627.218628,252.117157 619.121155,245.581955 610.907471,239.196365 
	C581.614685,216.423309 551.905212,194.166458 523.087708,170.808350 
	C501.133972,153.013641 480.160370,133.994949 459.045166,115.190147 
	C453.377319,110.142441 448.786072,103.885834 443.788391,97.667091 
	C443.993866,97.015572 444.111572,96.881157 444.229309,96.746750 
z"/>
<path fill="#F5B2D2" opacity="1.000000" stroke="none" 
	d="
M236.562851,216.581116 
	C218.485626,230.716553 200.693436,244.634644 181.960342,259.288788 
	C182.377151,252.479904 182.218887,246.540543 183.197296,240.794769 
	C185.481964,227.377808 188.340683,214.059189 190.903549,200.688599 
	C191.585739,197.129562 193.519363,195.084885 196.860214,193.458725 
	C233.078659,175.829391 269.326508,158.252777 305.318176,140.167923 
	C327.354065,129.095474 348.504852,116.434647 368.112610,101.353287 
	C369.149567,100.555717 370.347870,99.967903 371.471069,99.282448 
	C371.831390,99.549980 372.191711,99.817520 372.552032,100.085060 
	C371.253113,101.936165 370.218170,104.063805 368.613983,105.595085 
	C354.404419,119.158737 340.786987,133.457123 325.665283,145.926346 
	C296.517700,169.961182 266.503021,192.944473 236.562851,216.581116 
z"/>
<path fill="#F6B3D2" opacity="1.000000" stroke="none" 
	d="
M396.097412,55.125854 
	C390.993958,67.655762 381.981384,77.205894 372.050934,85.894058 
	C344.719788,109.806190 312.848846,126.529236 280.675415,142.643585 
	C254.041458,155.983444 227.132111,168.773499 200.338791,181.794846 
	C199.495270,182.204803 198.585587,182.478638 196.827835,183.153244 
	C204.291946,163.284958 214.018387,145.663712 226.804077,129.126572 
	C247.495499,123.021683 267.943665,118.274033 287.381897,110.873642 
	C309.481293,102.460106 330.940491,92.206558 352.164215,81.713646 
	C363.978546,75.872696 374.747253,67.916733 385.987183,60.913948 
	C385.987183,60.913952 385.987549,60.986034 386.286652,60.960091 
	C387.383423,60.260700 388.181091,59.587257 388.978760,58.913811 
	C388.978760,58.913807 388.989014,58.986420 389.288147,58.961651 
	C390.384766,58.260838 391.182251,57.584793 391.979767,56.908756 
	C391.979767,56.908760 391.982056,56.982578 392.282654,56.960052 
	C393.754639,56.333633 394.926025,55.729744 396.097412,55.125854 
z"/>
<path fill="#FEFEFF" opacity="1.000000" stroke="none" 
	d="
M549.256409,612.349854 
	C549.522888,611.094971 550.063843,610.248535 549.913757,609.550659 
	C548.443298,602.711426 551.867859,597.810791 556.228943,593.283936 
	C564.867126,584.317322 573.536621,575.380981 582.459778,566.267822 
	C582.558533,595.839539 584.792480,625.625671 580.132690,655.260986 
	C578.575012,665.167419 574.797058,673.134399 567.268250,680.136597 
	C544.841919,700.994019 519.773987,717.455383 491.243561,728.611206 
	C489.862579,729.151184 488.428741,729.570984 486.993744,729.948669 
	C486.549042,730.065796 486.018951,729.858337 485.492401,729.795166 
	C526.088745,701.305420 547.068604,662.195923 549.256409,612.349854 
z"/>
<path fill="#F5B2D1" opacity="1.000000" stroke="none" 
	d="
M374.267853,261.793640 
	C378.512054,270.777039 380.576263,279.858765 380.716431,290.207336 
	C379.360504,289.234528 378.565552,288.752106 377.871674,288.152679 
	C371.449982,282.605103 364.107056,279.689667 355.521271,279.732483 
	C336.696045,279.826385 317.860199,280.101196 299.048981,279.575470 
	C291.173676,279.355377 283.295166,277.551300 275.530823,275.928284 
	C272.593323,275.314209 269.973450,273.180786 266.416748,271.327148 
	C270.962097,267.122559 274.830078,263.342346 278.910858,259.807831 
	C290.989716,249.345856 303.024323,238.823730 315.400879,228.722916 
	C317.626495,226.906509 321.548615,225.933731 324.429474,226.351303 
	C346.851929,229.601410 363.579559,241.214249 374.267853,261.793640 
z"/>
<path fill="#F5B2D1" opacity="1.000000" stroke="none" 
	d="
M507.996429,279.742493 
	C495.168579,279.742462 482.832153,280.014496 470.513397,279.664795 
	C458.697418,279.329376 447.536743,280.473969 438.103027,290.621185 
	C437.529999,278.789764 440.219604,268.993591 445.203979,259.948914 
	C455.769836,240.776077 472.089966,229.567688 493.753906,226.180267 
	C497.753510,225.554871 500.873596,226.475037 504.109100,229.361618 
	C518.388855,242.101547 532.987366,254.484238 547.476318,266.989563 
	C548.735291,268.076202 550.036926,269.113495 551.802063,270.573486 
	C545.399414,276.688232 537.965820,278.194946 530.432495,278.893463 
	C523.156494,279.568115 515.810730,279.490112 507.996429,279.742493 
z"/>
<path fill="#FEFEFF" opacity="1.000000" stroke="none" 
	d="
M592.041809,555.435913 
	C596.859436,550.364441 601.578430,545.742554 606.334106,541.158936 
	C615.967896,531.873596 625.621521,522.608826 635.555054,513.190674 
	C637.300171,565.041931 621.787720,611.559326 590.315552,653.005920 
	C589.983643,652.980652 590.028809,653.011841 590.028809,653.011841 
	C590.672424,620.642151 591.316040,588.272461 592.041809,555.435913 
z"/>
<path fill="#FEFEFF" opacity="1.000000" stroke="none" 
	d="
M235.911804,616.436035 
	C245.992630,626.326965 255.987442,636.690002 265.998718,647.037170 
	C269.458405,650.612915 272.959106,654.148987 276.744812,657.843506 
	C282.538239,668.755066 287.394226,679.912537 293.666992,690.206604 
	C302.942566,705.428406 315.811432,717.498169 330.276428,728.283081 
	C330.073547,728.936035 329.915161,729.104248 329.756775,729.272461 
	C307.079163,721.455444 286.760498,709.400085 268.040192,694.581665 
	C262.186981,689.948303 257.053894,684.388977 251.107025,679.893921 
	C242.103912,673.088684 238.869522,663.685913 238.029449,653.154724 
	C237.066925,641.088806 236.545380,628.987793 235.911804,616.436035 
z"/>
<path fill="#FDFDFE" opacity="1.000000" stroke="none" 
	d="
M311.508362,58.493851 
	C337.250488,45.348957 364.775787,42.119610 392.608154,40.306545 
	C392.904297,40.740654 393.200439,41.174767 393.496582,41.608879 
	C389.999237,44.712414 386.964294,48.753391 382.920074,50.748215 
	C369.408722,57.412720 355.923553,64.484703 341.718719,69.312744 
	C314.713287,78.491531 287.217102,86.226463 259.056732,94.826073 
	C264.153778,86.396828 294.273682,66.139709 311.508362,58.493851 
z"/>
<path fill="#F4B2D2" opacity="1.000000" stroke="none" 
	d="
M500.432617,55.593288 
	C522.315369,65.074295 541.716431,77.714340 559.026917,94.008255 
	C551.834534,92.020630 544.561340,90.284058 537.463989,88.001030 
	C509.800995,79.102608 482.016937,70.525337 454.665985,60.743530 
	C445.645264,57.517361 437.736176,51.110176 429.462616,45.927940 
	C427.765320,44.864838 426.709961,42.776863 424.422882,40.042320 
	C451.167755,42.401882 476.525879,44.339756 500.432617,55.593288 
z"/>
<path fill="#FDFDFE" opacity="1.000000" stroke="none" 
	d="
M385.649719,60.688957 
	C374.747253,67.916733 363.978546,75.872696 352.164215,81.713646 
	C330.940491,92.206558 309.481293,102.460106 287.381897,110.873642 
	C267.943665,118.274033 247.495499,123.021683 227.071259,128.943939 
	C232.082733,122.251358 237.420685,115.473610 243.034958,108.933037 
	C244.089508,107.704468 246.192657,107.238106 247.904129,106.731705 
	C280.345001,97.132927 312.963226,88.091728 345.175018,77.780022 
	C358.986450,73.358673 371.958679,66.315758 385.649719,60.688957 
z"/>
<path fill="#FEFEFF" opacity="1.000000" stroke="none" 
	d="
M186.874695,562.432495 
	C199.293579,575.686157 211.760818,589.320557 224.080826,603.086792 
	C225.264954,604.409851 225.533524,606.552246 226.422668,608.584473 
	C227.042221,623.718994 227.466232,638.583496 227.892090,653.513123 
	C207.601868,626.501404 193.572861,596.365112 186.874695,562.432495 
z"/>
<path fill="#FDFDFE" opacity="1.000000" stroke="none" 
	d="
M396.347443,54.885529 
	C394.926025,55.729744 393.754639,56.333633 392.247742,56.948051 
	C393.175903,55.196903 394.439606,53.435226 395.703278,51.673550 
	C396.040375,51.855907 396.377441,52.038261 396.714539,52.220615 
	C396.675507,53.028812 396.636505,53.837009 396.347443,54.885529 
z"/>
<path fill="#FDFDFE" opacity="1.000000" stroke="none" 
	d="
M388.638428,58.706432 
	C388.181091,59.587257 387.383423,60.260700 386.254456,60.943947 
	C386.714783,60.135517 387.506409,59.317284 388.638428,58.706432 
z"/>
<path fill="#FDFDFE" opacity="1.000000" stroke="none" 
	d="
M391.657166,56.654655 
	C391.182251,57.584793 390.384766,58.260838 389.255493,58.944984 
	C389.727325,58.102249 390.530914,57.251404 391.657166,56.654655 
z"/>
<path fill="#F5B2D2" opacity="1.000000" stroke="none" 
	d="
M443.692139,97.344803 
	C442.764679,96.929344 442.021240,96.319069 441.277771,95.708794 
	C441.393250,95.510864 441.508698,95.312935 441.624146,95.115005 
	C442.376923,95.488808 443.129669,95.862617 444.055878,96.491577 
	C444.111572,96.881157 443.993866,97.015572 443.692139,97.344803 
z"/>
<path fill="#FEFEFF" opacity="1.000000" stroke="none" 
	d="
M298.606812,681.315674 
	C299.300934,681.779236 300.156158,682.551086 300.983032,683.690552 
	C300.225769,683.246765 299.496826,682.435364 298.606812,681.315674 
z"/>
<path fill="#FEFEFF" opacity="1.000000" stroke="none" 
	d="
M330.491943,728.538574 
	C331.362030,728.697144 331.972168,729.084900 333.527985,730.073730 
	C331.658417,729.896606 330.912231,729.825928 329.961395,729.513794 
	C329.915161,729.104248 330.073547,728.936035 330.491943,728.538574 
z"/>
<path fill="#FEFEFF" opacity="1.000000" stroke="none" 
	d="
M589.963440,652.962036 
	C589.915344,653.241089 589.903442,653.541870 589.847412,653.834167 
	C589.834595,653.900757 589.669067,653.938049 589.573730,653.988831 
	C589.610962,653.732239 589.648132,653.475708 589.857056,653.115479 
	C590.028809,653.011841 589.983643,652.980652 589.963440,652.962036 
z"/>
<path fill="#FBFBFD" opacity="1.000000" stroke="none" 
	d="
M31.210522,904.005737 
	C29.587288,903.954529 28.432608,903.903442 26.377197,903.812439 
	C29.297501,896.111755 32.075058,888.787476 35.302013,880.278076 
	C38.535870,888.656006 41.336308,895.911011 44.460880,904.005798 
	C39.795216,904.005798 35.737144,904.005798 31.210522,904.005737 
z"/>
<path fill="#FBFBFD" opacity="1.000000" stroke="none" 
	d="
M789.541382,904.003174 
	C784.442810,904.006042 779.793518,904.006042 774.291382,904.006042 
	C777.308594,896.066589 780.106628,888.703979 783.311829,880.269714 
	C786.328918,888.096375 788.975769,894.813965 791.428101,901.601868 
	C791.628296,902.155884 790.501038,903.189514 789.541382,904.003174 
z"/>
<path fill="#FBFBFD" opacity="1.000000" stroke="none" 
	d="
M693.705566,915.864258 
	C686.701477,917.430176 680.006653,918.784790 672.698608,920.263489 
	C672.698608,904.341125 672.698608,889.973694 672.698608,875.625000 
	C684.420227,873.380066 694.482849,877.207031 698.726257,885.356323 
	C702.586060,892.768982 703.243042,908.793701 693.705566,915.864258 
z"/>
<path fill="#6F5AA6" opacity="1.000000" stroke="none" 
	d="
M445.120728,418.003479 
	C449.037262,419.459930 452.792328,420.428772 456.121307,422.198883 
	C457.812012,423.097778 459.611298,425.379578 459.733917,427.149017 
	C459.835968,428.621246 457.864502,431.126007 456.287781,431.678314 
	C447.529358,434.746094 438.539581,437.149719 429.763550,440.171448 
	C414.788147,445.327545 400.111420,444.471588 385.385742,439.111755 
	C377.916870,436.393188 370.160400,434.464874 362.691925,431.745422 
	C360.882263,431.086487 358.616516,428.765045 358.533539,427.109253 
	C358.452606,425.494537 360.622375,422.661743 362.277283,422.245544 
	C372.660278,419.634277 381.103973,414.163544 388.304230,406.401825 
	C391.874176,402.553467 396.294098,402.171631 400.449005,405.206848 
	C406.272583,409.460999 411.523315,409.733948 417.683563,405.489349 
	C423.118896,401.744263 425.814850,402.820038 430.944977,407.265991 
	C435.324799,411.061737 440.153046,414.340057 445.120728,418.003479 
M390.800446,422.238617 
	C404.974487,422.238617 419.148529,422.238617 434.618866,422.238617 
	C430.821228,419.068329 428.339661,416.594543 425.449493,414.766907 
	C424.155823,413.948853 421.559601,413.677094 420.379730,414.437683 
	C412.595032,419.455658 405.137085,419.306763 397.560944,414.093048 
	C396.685455,413.490540 394.777893,413.212769 394.070160,413.744476 
	C390.974854,416.070129 388.145477,418.749695 384.453003,421.969238 
	C387.021973,422.096313 388.458618,422.167389 390.800446,422.238617 
M413.471375,431.121643 
	C406.726196,431.121643 399.981049,431.121643 393.235870,431.121643 
	C403.795166,435.720245 414.334473,436.124969 424.854523,431.121826 
	C421.388245,431.121826 417.921997,431.121826 413.471375,431.121643 
z"/>
<path fill="#F4B2D2" opacity="1.000000" stroke="none" 
	d="
M390.347839,422.238525 
	C388.458618,422.167389 387.021973,422.096313 384.453003,421.969238 
	C388.145477,418.749695 390.974854,416.070129 394.070160,413.744476 
	C394.777893,413.212769 396.685455,413.490540 397.560944,414.093048 
	C405.137085,419.306763 412.595032,419.455658 420.379730,414.437683 
	C421.559601,413.677094 424.155823,413.948853 425.449493,414.766907 
	C428.339661,416.594543 430.821228,419.068329 434.618866,422.238617 
	C419.148529,422.238617 404.974487,422.238617 390.347839,422.238525 
z"/>
<path fill="#CF9ECF" opacity="1.000000" stroke="none" 
	d="
M413.963562,431.121735 
	C417.921997,431.121826 421.388245,431.121826 424.854523,431.121826 
	C414.334473,436.124969 403.795166,435.720245 393.235870,431.121643 
	C399.981049,431.121643 406.726196,431.121643 413.963562,431.121735 
z"/>
</svg>